PathFileType	4	(X/Y/Z)	Patient4_TMGait_0pt3_01_left_26.trc.trc
DataRate	CameraRate	NumFrames	NumMarkers	Units	OrigDataRate	OrigDataStartFrame	OrigNumFrames
50.909090909091	50.909090909091	4	33	mm	50.909090909091	106	       141
Frame#	Time	Sacral			L.Shoulder			Chest			R.Shoulder			Neck			R.ASIS			L.ASIS			R.Thigh.Superior			R.Thigh.Lateral			R.Thigh.Inferior			R.Patella			L.Thigh.Superior			L.Thigh.Lateral			L.Thigh.Inferior			L.Patella			L.Shank.Superior			L.Shank.Lateral			L.Shank.Inferior			R.Shank.Superior			R.Shank.Lateral			R.Shank.Inferior			R.Heel			R.Midfoot.Superior			R.Midfoot.Lateral			R.Toe			L.Heel			L.Midfoot.Lateral			L.Midfoot.Superior			L.Toe			L.Elbow			L.Wrist			R.Elbow			R.Wrist			
		X1	Y1	Z1	X2	Y2	Z2	X3	Y3	Z3	X4	Y4	Z4	X5	Y5	Z5	X6	Y6	Z6	X7	Y7	Z7	X8	Y8	Z8	X9	Y9	Z9	X10	Y10	Z10	X11	Y11	Z11	X12	Y12	Z12	X13	Y13	Z13	X14	Y14	Z14	X15	Y15	Z15	X16	Y16	Z16	X17	Y17	Z17	X18	Y18	Z18	X19	Y19	Z19	X20	Y20	Z20	X21	Y21	Z21	X22	Y22	Z22	X23	Y23	Z23	X24	Y24	Z24	X25	Y25	Z25	X26	Y26	Z26	X27	Y27	Z27	X28	Y28	Z28	X29	Y29	Z29	X30	Y30	Z30	X31	Y31	Z31	X32	Y32	Z32	X33	Y33	Z33	

106	50.912500000000	688.552760219727	982.044208226504	553.095334979393	871.719550389592	1409.966571598975	360.949860958254	968.008768973530	1348.754943525521	528.571802097500	876.531983721364	1427.417183158013	696.318290320790	851.626829839631	1478.313375627183	516.140202356853	921.418283982633	932.309956204298	674.345511624009	907.596979892140	947.348978861757	400.198140005316	975.284710116233	732.804009452166	635.537387070029	898.740822944754	613.055724004517	683.927445259980	980.270813914736	569.278020249353	603.203040077211	982.986739066053	472.904605457226	603.950213363906	993.727978556253	759.054405268551	433.164259861147	950.718398617351	633.385625680757	353.629260615549	1047.275549396572	567.955924278246	425.453954977795	1056.397358744765	477.281797435378	413.031679132587	985.874617250285	415.921932627138	394.700280274526	842.174457931784	385.344608979340	342.880081732520	825.655018238088	250.688388800798	381.354212145467	937.160052803155	385.262763977610	604.264877702072	848.343158985792	291.541677711158	659.062763642823	872.479117107136	195.098852112256	592.214025417338	714.659079856944	44.057639455485	554.025849113380	885.261114690359	96.442843945510	599.015970502454	793.954975863670	37.456956108940	633.426770593259	1002.520627070122	41.488179695941	634.617443907918	635.116140297474	190.671276839937	417.265329175063	686.342806351339	153.641178956051	329.390166103945	791.702538893218	151.874705255858	347.306691825487	859.711564897338	39.944683092068	300.634177644427	844.086081026667	1050.462407328879	266.976221340759	889.253049827783	793.826149820610	268.878711406959	894.148710026469	1089.512891163834	846.194390421299	1070.467104412823	905.975404335196	905.108981235636	
107	50.932142857143	687.400724314724	981.593560636618	556.975516845530	866.782889451157	1408.961924292207	361.273721823135	966.612104670846	1348.082872223697	526.928175362646	878.827353097176	1427.115797898149	696.487159696719	850.248039425021	1477.687667797803	516.564090521047	921.938951884202	931.548339990870	674.114806947777	903.864618007022	947.150558116619	400.250078992104	974.291304740767	731.527486249895	634.710375881510	898.018869863211	612.021511083713	684.054732671365	978.117268016485	568.051535763458	602.084491184230	980.348618748217	471.629192063369	602.724860207304	992.526366432779	761.421630890143	434.002342446505	951.497445014744	635.024201510971	354.824253304637	1049.016410024635	571.299486754802	426.591681686731	1060.343330425535	481.296200095972	414.092046734682	992.439042879124	418.058240726076	395.694678596042	850.405046683523	380.826517967810	344.444362025255	840.652842145310	245.622016557929	382.893963379659	933.747359925548	384.108973613944	603.525952999045	844.739952146846	290.909251176392	659.081455047166	867.521941874905	194.419097373411	591.909043949116	708.633298277908	43.973551585491	554.183908497305	879.225548793547	96.254486814766	598.846971884367	787.988454767144	37.394093319485	633.603579879022	996.558426292748	41.504123312837	634.612901153371	653.445808142339	174.032824756132	419.316578414980	707.069517798239	141.785513346445	330.799375888453	812.148477394572	146.978911169476	348.638843429390	887.511178256202	40.824607902066	300.349012946156	826.426153946427	1050.530321667652	268.843411062567	858.703512496511	791.812933494199	273.018214307969	907.056503399672	1090.557469605363	847.448378376171	1094.981026008337	918.006960953261	902.430639646890	
108	50.951785714286	686.363516363560	981.904088288426	560.644549548040	861.938610065410	1408.647562856153	361.547158133574	965.398434756054	1347.915939378169	525.019245310742	881.551960447101	1427.335197797673	696.398261247063	849.098609659244	1477.622762425837	516.858839712662	922.425914989514	931.193787117791	673.542136591639	900.103146427492	947.414583368719	400.021027737171	972.634977894006	730.471025325781	633.690753509536	896.330013855824	611.465245432019	684.123991502275	974.845806869899	567.070354867028	600.961778582682	976.417312077327	470.767300466195	601.580670495392	990.703982116881	763.932344682210	434.358581656725	951.216191605138	636.946671553522	355.439491552877	1049.572867997291	574.711016334532	426.897360415978	1063.048644993491	485.670777592575	414.346766907913	998.261353445000	420.507479502149	396.015147449890	858.624053116050	375.615936917875	345.249735825626	856.585087995841	240.207089699182	383.895860678625	929.313356093760	383.404995152455	602.887206508819	840.380125096723	290.504702371025	659.172470171058	862.146809371036	194.005944881051	591.710127728489	702.613300940348	43.914932281775	554.374828995711	873.171914279966	96.087451373853	598.737283399534	782.022239548389	37.334700902305	633.784804676117	990.594381041934	41.499178406856	634.602347819737	673.835774728150	156.500755236347	420.736943809629	729.783166107111	128.802097657321	331.888687796716	834.171392765646	141.375279106784	349.730224498447	917.016194078265	41.494556303155	300.621005779654	808.373124886153	1051.981224033637	270.386139060618	829.528115293973	792.184843378056	277.271028556924	920.139820992429	1092.524506395124	848.262940956539	1119.300081534886	931.973154304727	898.394795103661	
109	50.971428571429	685.425100655688	982.949046803188	564.054989077478	857.283317379471	1408.993785465592	361.764018938290	964.388027904111	1348.221686047932	522.878886523961	884.664814763644	1428.059514762360	696.036570046231	848.205140035083	1478.091970532647	517.008051347196	922.834970198116	931.225787230112	672.672813366421	896.348523590394	948.134983911089	399.545696102742	970.335654450650	729.642538215905	632.540575425276	893.681836567974	611.377556987373	684.159383511948	970.519246996934	566.340695815389	599.899502613106	971.271041606279	470.310162420114	600.573189073764	988.291233271918	766.522008608158	434.239892027893	949.864641948215	639.076896460149	355.477760028625	1048.948665469315	578.092380746845	426.382969853820	1064.482754244942	490.310295164604	413.836333295441	1003.258629928608	423.263644327769	395.687082448455	866.837492202790	369.966575837451	345.265783974533	873.248987078975	234.816725651118	384.314150475775	923.924538633739	383.143137807154	602.382120307296	835.291537857036	290.332175163356	659.337042527329	856.379098488559	193.855548866996	591.620268277253	696.602959744594	43.881103511162	554.596110489293	867.110872299327	95.951652753995	598.698223331398	776.055450719727	37.279808236149	633.965051606905	984.628155961193	41.477063494071	634.588176470295	696.115666293978	138.857879417809	421.461223910451	754.244953488215	115.387848871833	332.580704013867	857.471783715989	135.514153493306	350.491017036104	947.627184255223	42.212619162239	301.337984914245	790.288183949833	1054.750868545938	271.748450827628	801.891135375038	794.585663130164	281.574837029227	933.358681313341	1095.384101066456	848.619467299372	1143.163016901589	947.782847147640	893.038814247828	
